<?xml version="1.0" standalone="no"?>
<!DOCTYPE svg PUBLIC "-//W3C//DTD SVG 20010904//EN"
 "http://www.w3.org/TR/2001/REC-SVG-20010904/DTD/svg10.dtd">
<svg version="1.0" xmlns="http://www.w3.org/2000/svg"
 width="1024.000000pt" height="1024.000000pt" viewBox="0 0 1024.000000 1024.000000"
 preserveAspectRatio="xMidYMid meet">

<g transform="translate(0.000000,1024.000000) scale(0.100000,-0.100000)"
fill="#000000" stroke="none">
<path d="M4889 7520 c-280 -16 -537 -64 -815 -155 -144 -47 -426 -188 -544
-272 -177 -127 -329 -299 -400 -456 -57 -126 -62 -179 -58 -643 4 -403 5 -421
26 -478 12 -32 32 -77 45 -100 l23 -41 -23 -40 c-13 -22 -33 -69 -45 -105 -21
-62 -22 -84 -26 -470 -4 -455 0 -490 63 -626 71 -155 204 -298 393 -424 104
-69 285 -163 412 -213 147 -58 439 -131 640 -162 256 -38 801 -39 1065 0 511
73 965 261 1234 512 99 91 157 165 204 259 64 127 68 157 70 535 1 186 -1 341
-4 344 -3 3 -32 -7 -65 -21 -120 -53 -289 -113 -297 -105 -5 5 23 48 62 95 95
117 154 209 217 341 57 120 79 192 90 299 5 57 4 68 -7 63 -8 -3 -65 -29 -128
-57 -63 -28 -137 -60 -164 -71 -46 -18 -49 -19 -42 -2 4 10 12 36 18 58 5 22
26 58 46 80 118 130 205 304 252 503 25 103 26 270 4 357 -62 239 -277 485
-576 658 -137 79 -231 120 -426 186 -391 131 -768 176 -1244 151z m411 -322
c38 0 49 -3 35 -8 -17 -8 -16 -9 8 -9 16 -1 26 3 22 9 -3 6 1 7 9 4 9 -3 13
-10 10 -15 -3 -5 5 -10 18 -11 53 -4 64 -6 78 -11 50 -17 252 -57 261 -51 7 4
9 3 6 -3 -5 -7 134 -57 193 -69 11 -2 68 -27 152 -65 48 -22 93 -37 99 -33 7
4 9 3 6 -4 -4 -6 16 -23 45 -40 148 -83 326 -243 419 -376 68 -96 91 -163 93
-261 1 -71 -2 -85 -28 -130 -38 -66 -145 -170 -238 -233 -406 -274 -1055 -400
-1707 -333 -233 24 -351 46 -519 97 -301 91 -527 218 -691 389 -87 91 -124
157 -146 261 -31 148 25 294 166 432 205 201 523 350 906 426 221 44 239 45
498 39 138 -3 275 -5 305 -5z m464 -63 c-4 -8 -11 -12 -16 -9 -6 4 -5 10 3 15
19 12 19 11 13 -6z m110 -30 c3 -9 0 -12 -10 -8 -8 3 -20 0 -27 -5 -14 -12
-57 -5 -57 9 0 5 14 9 31 9 16 0 28 4 25 9 -4 5 3 7 13 4 11 -3 22 -11 25 -18z
m51 -25 c-3 -5 -12 -10 -18 -10 -7 0 -6 4 3 10 19 12 23 12 15 0z m60 0 c3 -5
1 -10 -4 -10 -6 0 -11 5 -11 10 0 6 2 10 4 10 3 0 8 -4 11 -10z m100 -42 c5 4
5 1 1 -6 -6 -10 -11 -10 -22 -1 -8 6 -14 14 -14 16 0 3 6 0 13 -6 8 -6 18 -7
22 -3z m66 -15 c13 -16 12 -17 -3 -4 -10 7 -18 15 -18 17 0 8 8 3 21 -13z
m-96 -4 c11 -16 1 -19 -13 -3 -7 8 -8 14 -3 14 5 0 13 -5 16 -11z m-2620
-1327 c-5 -13 -3 -13 12 -1 15 12 16 12 8 -1 -10 -16 -16 -40 -9 -40 2 0 9 11
16 24 l13 24 100 -64 c206 -132 411 -223 669 -298 508 -148 735 -197 1132
-241 165 -18 499 -39 525 -32 10 3 19 2 19 -3 0 -4 -19 -10 -42 -13 -24 -4
-119 -18 -213 -32 -93 -13 -173 -25 -176 -25 -3 0 16 -43 43 -95 l49 -95 -34
0 c-121 0 -515 44 -732 81 -272 47 -615 143 -745 209 -30 15 -95 46 -144 69
-49 23 -96 49 -103 59 -8 9 -11 11 -7 3 5 -10 3 -12 -6 -6 -10 6 -9 11 5 22
11 7 13 13 6 13 -7 0 -10 4 -7 8 3 5 -1 9 -9 9 -10 0 -12 -4 -5 -12 7 -9 6
-14 -5 -18 -8 -4 -14 -1 -12 5 1 6 -4 13 -12 16 -8 3 -11 0 -7 -7 5 -7 1 -9
-8 -5 -13 5 -13 9 5 23 23 19 18 46 -12 62 -11 5 -17 14 -15 18 3 4 -1 8 -9 8
-8 0 -12 -3 -10 -7 2 -4 -2 -7 -10 -7 -13 0 -13 2 0 17 13 14 9 21 -38 68 -29
29 -56 50 -59 47 -3 -4 -5 2 -4 12 0 10 -5 17 -12 15 -8 -1 -11 2 -8 7 3 5 -1
15 -10 22 -9 7 -20 24 -25 37 -7 19 -12 22 -23 13 -10 -9 -16 -9 -21 -1 -4 6
-3 10 2 9 22 -4 23 4 2 39 -12 20 -26 40 -31 45 -4 4 -6 4 -3 1 3 -4 -3 -13
-13 -21 -16 -12 -16 -13 1 -7 19 7 24 -11 6 -22 -8 -4 -6 -10 6 -17 14 -8 15
-11 4 -18 -10 -6 -11 -9 -1 -9 6 0 12 -5 12 -11 0 -6 -6 -9 -14 -6 -10 4 -14
0 -11 -14 2 -12 -2 -19 -11 -19 -8 0 -14 5 -14 10 0 6 5 10 11 10 5 0 7 5 4
10 -5 8 -11 8 -20 0 -9 -8 -14 -6 -19 5 -3 8 0 15 6 15 6 0 2 10 -10 23 -12
13 -19 27 -15 30 3 4 1 7 -5 7 -6 0 -9 7 -5 17 4 10 2 14 -4 10 -12 -7 -27 68
-18 84 4 5 1 9 -4 9 -6 0 -11 10 -11 23 0 19 7 15 46 -27 26 -30 42 -56 39
-64z m78 -156 c-4 -5 1 -7 10 -3 9 3 19 1 23 -5 4 -7 3 -8 -4 -4 -11 6 -16 -6
-13 -26 0 -5 -5 -7 -11 -5 -7 1 -12 -6 -10 -15 4 -22 -11 -23 -29 -2 -15 18
-22 47 -9 39 4 -3 13 1 19 9 9 11 9 15 -1 19 -7 3 -3 4 9 4 12 -1 19 -5 16
-11z m64 -70 c-1 -5 3 -11 8 -11 24 -2 55 -17 55 -26 0 -6 4 -8 9 -5 11 7 57
-42 48 -51 -4 -3 -7 -1 -7 5 0 7 -7 12 -15 12 -8 0 -14 6 -12 13 1 7 -7 11
-21 9 -13 -2 -21 1 -20 9 2 6 -3 14 -10 16 -7 3 -11 0 -10 -5 2 -6 -1 -10 -7
-11 -5 -1 -10 4 -10 9 0 6 -4 10 -10 9 -5 -1 -9 -5 -7 -10 1 -5 -4 -8 -10 -6
-7 1 -12 -4 -10 -11 1 -8 -1 -11 -6 -8 -10 6 -10 46 0 62 9 14 38 14 35 0z
m28 -76 c3 -5 1 -10 -4 -10 -6 0 -11 5 -11 10 0 6 2 10 4 10 3 0 8 -4 11 -10z
m43 -39 c11 -6 23 -7 28 -3 5 4 3 0 -4 -9 -17 -23 -5 -29 25 -14 30 16 49 10
34 -9 -6 -7 -8 -16 -4 -20 4 -4 0 -4 -10 0 -9 3 -14 11 -11 18 3 6 -1 3 -9 -6
-13 -17 -15 -17 -31 0 -9 10 -13 22 -9 27 5 4 0 5 -10 2 -12 -5 -16 -3 -11 5
5 7 2 9 -9 5 -8 -3 -21 0 -27 8 -10 12 -8 13 8 10 12 -2 29 -8 40 -14z m109
-56 c0 -8 -4 -12 -9 -9 -5 3 -6 10 -3 15 9 13 12 11 12 -6z m-26 -23 c-7 -2
-18 1 -23 6 -8 8 -4 9 13 5 13 -4 18 -8 10 -11z m2744 -13 c-4 -5 -12 -9 -18
-8 -9 0 -8 2 1 6 6 2 9 10 6 15 -4 7 -2 8 5 4 6 -4 9 -12 6 -17z m-515 -5 c0
-8 -19 -13 -24 -6 -3 5 1 9 9 9 8 0 15 -2 15 -3z m224 -3 c3 -5 -2 -15 -12
-22 -15 -12 -16 -12 -5 2 7 9 10 19 6 22 -3 4 -4 7 0 7 3 0 8 -4 11 -9z m-474
-5 c0 -3 -4 -8 -10 -11 -5 -3 -10 -1 -10 4 0 6 5 11 10 11 6 0 10 -2 10 -4z
m120 -20 c0 -2 -8 -10 -17 -17 -16 -13 -17 -12 -4 4 13 16 21 21 21 13z
m-2473 -98 c-3 -8 -6 -5 -6 6 -1 11 2 17 5 13 3 -3 4 -12 1 -19z m20 -18 c-3
-14 0 -20 10 -20 13 0 13 -3 3 -15 -9 -10 -9 -15 -1 -15 7 0 9 -13 5 -36 -4
-25 -2 -34 5 -29 6 3 9 11 6 16 -4 5 -1 9 4 9 6 0 11 -9 11 -19 0 -14 5 -18
20 -14 14 4 20 0 20 -11 0 -11 -8 -15 -29 -12 -23 2 -28 0 -24 -13 4 -14 3
-14 -6 -1 -10 14 -30 76 -35 107 -1 7 -5 15 -8 18 -5 6 13 55 21 55 2 0 1 -9
-2 -20z m2724 2 c-7 -2 -18 1 -23 6 -8 8 -4 9 13 5 13 -4 18 -8 10 -11z
m-2684 -14 c11 -19 13 -39 2 -32 -5 3 -7 9 -4 14 3 5 -3 13 -12 19 -10 6 -13
11 -6 11 6 0 15 -6 20 -12z m123 -82 c176 -115 436 -231 705 -314 231 -72 498
-143 512 -138 8 3 11 1 8 -4 -3 -6 -2 -10 3 -10 5 0 25 -2 43 -5 27 -4 30 -3
14 5 -18 9 -18 9 5 7 14 -1 24 -8 23 -15 -2 -6 2 -12 7 -12 6 0 10 4 10 9 0 5
14 9 30 9 18 -1 29 -6 27 -12 -2 -6 -15 -10 -28 -9 -13 1 10 -9 51 -23 41 -14
98 -26 126 -27 29 -1 47 -5 42 -8 -13 -8 22 -20 180 -60 68 -17 130 -28 138
-25 8 3 12 2 9 -3 -7 -12 79 -26 96 -15 7 4 10 3 6 -3 -4 -6 46 -20 131 -36
152 -29 337 -58 349 -55 4 1 25 -2 47 -7 56 -11 36 -18 -164 -59 -261 -53
-428 -68 -763 -68 -159 0 -291 3 -294 5 -2 3 14 40 37 82 23 42 40 78 38 80
-2 3 -76 16 -164 29 -215 34 -373 68 -532 116 -218 66 -443 164 -425 185 5 4
3 5 -4 1 -13 -7 -84 24 -78 35 3 3 -3 6 -13 5 -12 -1 -17 6 -17 24 0 17 5 24
15 22 10 -2 7 5 -9 22 -19 20 -28 23 -43 15 -10 -5 -16 -14 -13 -20 4 -6 13
-5 24 1 19 10 34 3 25 -11 -2 -4 -12 -5 -22 -2 -15 6 -15 5 -3 -10 12 -15 11
-17 -3 -17 -9 0 -19 7 -22 15 -4 8 -10 12 -15 9 -5 -3 -9 0 -9 5 0 6 -3 10 -7
9 -5 -2 -25 10 -45 26 -37 27 -37 28 -20 52 21 29 32 30 32 3 0 -13 -4 -18
-12 -13 -7 4 -8 3 -4 -4 4 -7 1 -12 -6 -12 -8 0 -6 -5 5 -11 21 -12 47 -5 47
12 0 8 -4 8 -15 -1 -19 -16 -20 0 -1 25 16 23 10 46 -10 38 -10 -3 -12 0 -9
10 4 8 -8 29 -29 51 -19 20 -37 44 -40 52 -3 8 -11 12 -17 9 -6 -5 -9 0 -7 12
1 10 -4 30 -13 44 -31 48 -33 52 -18 43 8 -5 48 -31 89 -58z m-98 -8 c-7 -7
-12 -8 -12 -2 0 6 3 14 7 17 3 4 9 5 12 2 2 -3 -1 -11 -7 -17z m7 -71 c12 -15
12 -17 -4 -11 -13 5 -16 4 -11 -4 5 -8 2 -10 -8 -6 -12 5 -13 10 -5 26 6 11
12 18 13 16 1 -1 8 -11 15 -21z m41 -67 c-8 -5 -19 -10 -25 -10 -5 0 -3 5 5
10 8 5 20 10 25 10 6 0 3 -5 -5 -10z m53 -12 c-4 -7 -8 -19 -9 -26 -4 -26 -14
-25 -14 1 0 21 8 31 28 36 2 1 0 -5 -5 -11z m1457 -330 c0 -5 -10 -6 -21 -3
-16 6 -20 4 -13 -6 6 -12 5 -12 -9 0 -22 18 -22 17 13 17 17 0 30 -4 30 -8z
m-1556 -66 c25 -18 57 -44 71 -58 14 -14 30 -22 37 -18 7 4 8 3 4 -4 -8 -13
71 -75 85 -67 4 3 11 0 15 -6 5 -8 2 -10 -7 -5 -8 4 -5 0 5 -8 24 -19 40 -21
30 -3 -5 9 -4 9 6 0 11 -10 17 -10 29 0 11 9 13 9 8 0 -4 -6 -3 -14 3 -18 5
-3 10 -11 10 -18 0 -6 -6 -3 -13 8 -9 12 -16 14 -21 7 -7 -12 32 -38 41 -28 4
3 13 -3 20 -14 8 -11 19 -18 24 -15 5 4 9 2 9 -3 0 -5 30 -25 68 -43 37 -18
74 -39 82 -45 8 -6 53 -28 99 -48 70 -31 86 -35 100 -24 14 11 14 11 3 -3 -11
-14 -5 -19 50 -39 35 -13 68 -27 75 -32 7 -6 17 -7 23 -3 5 3 10 0 10 -7 0
-23 415 -143 455 -132 16 4 17 3 5 -5 -13 -9 -13 -11 3 -11 9 0 18 1 20 2 1 1
11 -3 22 -9 19 -11 82 -25 117 -26 9 -1 15 -4 12 -8 -10 -17 439 -109 548
-112 43 -1 78 -5 78 -9 0 -5 17 -8 38 -9 l37 -1 -40 -8 c-81 -16 -326 -30
-526 -30 -553 0 -1025 121 -1369 351 -218 146 -326 300 -346 495 -7 68 -7 68
13 54 11 -8 41 -30 67 -48z m1776 11 c0 -8 -4 -12 -9 -9 -5 4 -11 0 -14 -6 -2
-7 -4 -1 -3 13 1 28 26 30 26 2z m220 -4 c0 -4 -6 -9 -13 -12 -8 -3 -14 0 -14
7 0 7 6 13 14 13 7 0 13 -4 13 -8z m-184 -11 c4 -7 4 -10 -1 -6 -4 4 -15 2
-24 -5 -14 -11 -14 -10 -2 6 16 20 18 21 27 5z m-1488 -193 c-3 -3 -9 2 -12
12 -6 14 -5 15 5 6 7 -7 10 -15 7 -18z m37 -6 c-4 -6 2 -13 13 -16 11 -2 22
-15 24 -28 4 -20 3 -22 -13 -12 -10 6 -22 20 -28 32 -9 19 -10 19 -10 1 -1
-16 -4 -17 -13 -8 -9 9 -8 15 8 27 23 17 27 18 19 4z m78 -61 c-2 -4 -10 -2
-17 5 -8 6 -12 15 -9 19 2 4 10 2 17 -5 8 -6 12 -15 9 -19z m77 -4 c0 -2 -11
-4 -25 -4 -14 0 -25 4 -25 9 0 4 11 6 25 3 14 -2 25 -6 25 -8z m29 -33 c10 -6
-1 -8 -30 -4 -24 3 -46 7 -48 9 -10 9 65 3 78 -5z m2706 -41 c-3 -5 -12 -10
-18 -10 -7 0 -6 4 3 10 19 12 23 12 15 0z m-40 -29 c-3 -6 -11 -8 -17 -5 -7 5
-9 2 -5 -8 3 -10 -6 -27 -24 -44 -23 -22 -29 -24 -29 -11 0 9 5 17 12 17 9 0
9 3 0 12 -20 20 -13 32 7 14 13 -11 21 -14 26 -7 3 6 -1 14 -11 18 -13 5 -11
8 12 18 32 13 40 12 29 -4z m-95 -95 c0 -2 -7 -7 -16 -10 -8 -3 -12 -2 -9 4 6
10 25 14 25 6z m-71 -30 c9 -11 9 -16 0 -22 -8 -4 -9 -3 -5 4 4 7 2 12 -3 12
-6 0 -11 5 -11 10 0 14 5 13 19 -4z"/>
<path d="M4885 6989 c-290 -31 -514 -79 -668 -143 -396 -164 -544 -456 -350
-692 132 -162 451 -301 823 -359 140 -22 546 -31 705 -16 590 57 1000 272
1045 547 25 155 -62 309 -241 424 -102 66 -186 103 -327 146 -276 83 -701 123
-987 93z m485 -318 c23 -1 24 -2 7 -15 -10 -8 -16 -19 -15 -26 2 -7 -2 -14 -9
-17 -8 -3 -11 3 -8 16 5 28 -11 36 -18 10 -3 -12 -10 -19 -14 -16 -5 3 -15 1
-23 -4 -13 -9 -13 -10 0 -8 8 1 22 0 30 -4 28 -10 245 -72 255 -72 6 0 12 -3
15 -6 3 -4 34 -19 70 -34 95 -39 321 -148 317 -152 -2 -2 -60 10 -128 26 -211
50 -372 72 -639 87 -278 15 -685 -50 -916 -145 l-94 -39 -35 39 c-49 55 -48
96 3 147 92 91 349 182 602 211 58 7 453 8 600 2z m50 -10 c0 -5 -7 -11 -15
-15 -8 -3 -15 -12 -15 -20 0 -8 -5 -18 -11 -21 -6 -4 -9 0 -7 11 5 30 48 70
48 45z m42 -14 c-8 -9 -8 -17 0 -27 8 -12 9 -12 4 3 -3 9 -1 17 4 17 16 0 20
-18 6 -29 -10 -8 -16 -8 -25 3 -12 15 -5 46 11 46 7 0 7 -4 0 -13z m91 -4 c-7
-2 -19 -2 -25 0 -7 3 -2 5 12 5 14 0 19 -2 13 -5z m-123 -22 c0 -10 -6 -21
-14 -24 -19 -7 -25 0 -19 24 7 25 33 25 33 0z m80 -492 c47 -6 91 -15 98 -19
8 -4 -42 -13 -110 -21 -169 -19 -633 -19 -748 0 l-85 15 57 13 c32 7 95 17
140 22 105 12 536 6 648 -10z"/>
<path d="M5171 6654 c0 -11 3 -14 6 -6 3 7 2 16 -1 19 -3 4 -6 -2 -5 -13z"/>
<path d="M5280 6652 c0 -12 4 -22 9 -22 10 0 9 26 -2 36 -4 4 -7 -2 -7 -14z"/>
<path d="M5305 6651 c-3 -5 -1 -12 5 -16 5 -3 10 1 10 9 0 18 -6 21 -15 7z"/>
<path d="M3384 5743 c3 -6 2 -14 -4 -18 -6 -4 -8 -11 -4 -16 3 -5 10 -6 16 -3
8 5 9 1 5 -10 -4 -10 -3 -15 3 -11 7 4 9 -3 6 -19 -4 -21 -1 -26 17 -27 21 -1
21 -1 -1 -8 l-24 -6 22 -20 c12 -11 20 -14 18 -8 -2 6 6 19 17 28 11 9 15 14
10 12 -6 -3 -22 3 -35 14 -20 15 -21 18 -5 12 19 -7 19 -6 2 11 -10 10 -16 25
-13 32 3 8 0 13 -6 11 -7 -1 -12 3 -13 10 0 6 -4 15 -9 20 -5 4 -6 3 -2 -4z"/>
<path d="M3443 5603 c4 -3 2 -11 -3 -18 -7 -8 -5 -12 5 -12 8 0 15 9 15 19 0
10 -5 18 -12 18 -6 0 -8 -3 -5 -7z"/>
<path d="M3486 5511 c-15 -17 -15 -19 1 -32 10 -7 15 -9 10 -4 -4 4 0 16 9 26
8 9 11 20 6 23 -5 3 -17 -3 -26 -13z m24 5 c0 -2 -8 -10 -17 -17 -16 -13 -17
-12 -4 4 13 16 21 21 21 13z"/>
<path d="M3549 5468 c0 -2 -2 -11 -4 -21 -3 -15 -1 -16 11 -6 7 6 11 15 8 20
-5 9 -13 12 -15 7z"/>
<path d="M3614 4798 c17 -24 20 -39 9 -37 -5 1 -15 1 -23 -1 -11 -1 -9 -4 5
-10 13 -5 26 -3 38 8 20 18 23 36 3 29 -8 -3 -16 2 -19 14 -3 10 -10 19 -17
19 -7 0 -6 -8 4 -22z"/>
</g>
</svg>
